# xmcd CD database file
#
# Track frame offsets:
#	182
#	20492
#	22822
#	54655
#	57940
#	80535
#	83367
#	111050
#	113060
#	136990
#	139382
#	176515
#	179327
#	198787
#	200705
#	222675
#
# Disc length: 3420 seconds
#
# Revision: 0
# Processed by: cddbd v1.4PL0 Copyright (c) Steve Scherf et al.
# Submitted via: CDex 1.50
#
DISCID=de0d5a10
DTITLE=Rodney Kendrick - Last chance for common sense
DYEAR=1900
DGENRE=Jazz
TTITLE0=LAst chance for common sense
TTITLE1=Rodney's rhythms part 1
TTITLE2=Sun rays
TTITLE3=Rodney's rhythms part 2
TTITLE4=The nac
TTITLE5=Rodney's rhythms part 3
TTITLE6=Remenbre
TTITLE7=Rodney's rhythms part 4
TTITLE8=led astray
TTITLE9=Rodney's rhythms part 5
TTITLE10=Middle passage
TTITLE11=Rodney's rhythms part 6
TTITLE12=Malika my little gril
TTITLE13=Rodney's rhythms part 7
TTITLE14=We live on
TTITLE15=The royal walk
EXTD=
EXTT0=
EXTT1=
EXTT2=
EXTT3=
EXTT4=
EXTT5=
EXTT6=
EXTT7=
EXTT8=
EXTT9=
EXTT10=
EXTT11=
EXTT12=
EXTT13=
EXTT14=
EXTT15=
PLAYORDER=
